<svg width="113" height="38" viewBox="0 0 113 38" fill="none" xmlns="http://www.w3.org/2000/svg">
<g clip-path="url(#clip0_1635_1351)">
<path d="M104.001 0.0001235H9.0037C8.65742 0.0001235 8.31529 0.0001235 7.96993 0.0020235C7.68083 0.0039235 7.39403 0.009443 7.10216 0.0140885C6.46807 0.0215952 5.83547 0.0777159 5.20985 0.181963C4.58512 0.28848 3.97996 0.489293 3.41483 0.777613C2.8504 1.06837 2.33466 1.44618 1.88633 1.89734C1.43564 2.34723 1.05995 2.86724 0.773721 3.43738C0.486698 4.00638 0.287675 4.61612 0.183527 5.24553C0.0783881 5.87415 0.021812 6.51002 0.0143063 7.14743C0.0055431 7.4387 0.00461768 7.73094 0 8.02225V29.9808C0.00461768 30.2758 0.0055431 30.5615 0.0143063 30.8566C0.0218143 31.494 0.0783904 32.1298 0.183527 32.7584C0.287388 33.3882 0.486422 33.9983 0.773721 34.5675C1.05982 35.1358 1.43556 35.6537 1.88633 36.1011C2.33296 36.5542 2.84903 36.9323 3.41483 37.2208C3.97995 37.5099 4.58505 37.7119 5.20985 37.8201C5.83557 37.9235 6.46811 37.9797 7.10216 37.9881C7.39403 37.9945 7.68083 37.9982 7.96993 37.9982C8.31528 38.0001 8.65744 38.0001 9.0037 38.0001H104.001C104.341 38.0001 104.686 38.0001 105.025 37.9982C105.313 37.9982 105.608 37.9945 105.896 37.9881C106.528 37.9801 107.16 37.924 107.784 37.8201C108.411 37.7112 109.018 37.5092 109.586 37.2208C110.151 36.9321 110.667 36.5541 111.113 36.1011C111.563 35.6519 111.939 35.1344 112.229 34.5675C112.514 33.9979 112.711 33.3878 112.814 32.7584C112.919 32.1297 112.978 31.494 112.989 30.8566C112.993 30.5615 112.993 30.2758 112.993 29.9808C113 29.6357 113 29.2924 113 28.9417V9.05945C113 8.71155 113 8.36643 112.993 8.02225C112.993 7.73094 112.993 7.4387 112.989 7.14739C112.978 6.50992 112.919 5.8742 112.814 5.24549C112.711 4.61644 112.514 4.00675 112.229 3.43734C111.646 2.29456 110.722 1.36435 109.586 0.777527C109.018 0.489912 108.411 0.289152 107.784 0.181877C107.16 0.0771711 106.528 0.0210309 105.896 0.0139555C105.608 0.0093195 105.313 0.0037525 105.025 0.0019C104.686 0 104.341 0 104.001 0V0.0001235Z" fill="#ECF1F4"/>
<path d="M7.97458 37.1686C7.68687 37.1686 7.4061 37.1649 7.12065 37.1584C6.5293 37.1506 5.93934 37.0989 5.3556 37.0034C4.81129 36.9091 4.284 36.7337 3.79112 36.4829C3.30277 36.2343 2.85735 35.9082 2.47192 35.5172C2.08092 35.1308 1.7554 34.6826 1.50825 34.1905C1.25837 33.6952 1.08544 33.1642 0.995485 32.6162C0.898338 32.0273 0.845778 31.4318 0.838257 30.8349C0.83227 30.6346 0.824432 29.9675 0.824432 29.9675V8.02193C0.824432 8.02193 0.83278 7.36509 0.838304 7.17211C0.845505 6.57616 0.89776 5.98163 0.994616 5.39365C1.08474 4.84409 1.2578 4.31162 1.50781 3.81465C1.75405 3.32285 2.07777 2.87437 2.46642 2.4866C2.85463 2.09515 3.30147 1.76738 3.79066 1.51525C4.28241 1.26529 4.8087 1.0911 5.35191 0.998511C5.93757 0.902149 6.52958 0.850051 7.12297 0.842654L7.97504 0.831055H105.02L105.883 0.84312C106.471 0.850149 107.057 0.901782 107.638 0.99758C108.186 1.09133 108.718 1.26674 109.215 1.51804C110.195 2.02614 110.993 2.83001 111.496 3.81697C111.742 4.3105 111.912 4.83864 112.001 5.38345C112.099 5.97625 112.154 6.57546 112.165 7.1763C112.168 7.44534 112.168 7.73432 112.168 8.02193C112.176 8.37818 112.176 8.71726 112.176 9.05913V28.9414C112.176 29.2865 112.176 29.6233 112.168 29.9628C112.168 30.2717 112.168 30.5548 112.165 30.846C112.153 31.4361 112.1 32.0247 112.003 32.6068C111.915 33.1589 111.743 33.6939 111.493 34.1933C111.244 34.6801 110.921 35.1244 110.534 35.5098C110.148 35.9029 109.702 36.2309 109.213 36.4811C108.717 36.7338 108.186 36.9099 107.638 37.0034C107.054 37.0994 106.464 37.1512 105.872 37.1584C105.596 37.1649 105.306 37.1686 105.025 37.1686L104.001 37.1705L7.97458 37.1686Z" fill="#FDFDFD"/>
<path d="M23.3895 19.2867C23.3996 18.4938 23.609 17.7163 23.9981 17.0266C24.3872 16.337 24.9433 15.7575 25.6148 15.3422C25.1882 14.7293 24.6255 14.2249 23.9712 13.8691C23.317 13.5133 22.5893 13.3158 21.8459 13.2924C20.2602 13.125 18.7229 14.247 17.9148 14.247C17.0911 14.247 15.847 13.3091 14.5073 13.3368C13.6407 13.3649 12.7962 13.6185 12.056 14.0726C11.3157 14.5268 10.7051 15.1661 10.2835 15.9283C8.45718 19.1093 9.81943 23.7843 11.5689 26.3555C12.4442 27.6146 13.4671 29.021 14.8056 28.9712C16.1154 28.9165 16.6046 28.1309 18.1857 28.1309C19.7521 28.1309 20.211 28.9712 21.5767 28.9395C22.9822 28.9165 23.8677 27.6748 24.7123 26.4038C25.3412 25.5066 25.8251 24.5151 26.1461 23.4659C25.3296 23.1184 24.6328 22.5369 24.1426 21.7937C23.6523 21.0505 23.3904 20.1786 23.3895 19.2867Z" fill="#222C34"/>
<path d="M20.81 11.6012C21.5763 10.6757 21.9538 9.48618 21.8624 8.28516C20.6916 8.40887 19.6102 8.9718 18.8335 9.86179C18.4537 10.2966 18.1629 10.8024 17.9776 11.3503C17.7923 11.8982 17.7161 12.4775 17.7535 13.0551C18.3391 13.0612 18.9184 12.9335 19.4478 12.6816C19.9773 12.4298 20.443 12.0604 20.81 11.6012Z" fill="#222C34"/>
<path d="M39.9464 25.7833H35.4766L34.4032 28.9719H32.51L36.7437 17.1748H38.7107L42.9444 28.9719H41.0189L39.9464 25.7833ZM35.9396 24.3119H39.4826L37.736 19.137H37.6871L35.9396 24.3119Z" fill="#222C34"/>
<path d="M52.0888 24.6719C52.0888 27.3447 50.6668 29.0619 48.5209 29.0619C47.9773 29.0905 47.4367 28.9645 46.9609 28.6984C46.4852 28.4323 46.0936 28.0367 45.8309 27.5571H45.7903V31.8173H44.0354V20.3709H45.7341V21.8014H45.7663C46.0411 21.3241 46.4393 20.9306 46.9187 20.6629C47.398 20.3951 47.9406 20.2631 48.4886 20.2809C50.6584 20.2809 52.0888 22.0065 52.0888 24.6719ZM50.285 24.6719C50.285 22.9305 49.3905 21.7857 48.0257 21.7857C46.6848 21.7857 45.7829 22.9546 45.7829 24.6719C45.7829 26.4049 46.6848 27.5655 48.0257 27.5655C49.3905 27.5655 50.285 26.429 50.285 24.6719Z" fill="#222C34"/>
<path d="M61.497 24.6718C61.497 27.3447 60.075 29.0619 57.9291 29.0619C57.3855 29.0905 56.8449 28.9645 56.3691 28.6984C55.8934 28.4323 55.5018 28.0367 55.2391 27.5571H55.1985V31.8172H53.4436V20.3709H55.1422V21.8014H55.1745C55.4492 21.3241 55.8475 20.9306 56.3269 20.6629C56.8062 20.3951 57.3488 20.2631 57.8968 20.2809C60.0667 20.2809 61.497 22.0065 61.497 24.6718ZM59.6932 24.6718C59.6932 22.9305 58.7987 21.7857 57.4339 21.7857C56.093 21.7857 55.1911 22.9546 55.1911 24.6718C55.1911 26.4049 56.093 27.5655 57.4339 27.5655C58.7987 27.5655 59.6932 26.429 59.6932 24.6718H59.6932Z" fill="#222C34"/>
<path d="M67.7166 25.6854C67.8466 26.8552 68.9763 27.6234 70.52 27.6234C71.9992 27.6234 73.0634 26.8552 73.0634 25.8004C73.0634 24.8847 72.4215 24.3364 70.9018 23.9607L69.382 23.5923C67.2287 23.0691 66.2291 22.056 66.2291 20.4121C66.2291 18.3766 67.9923 16.9785 70.496 16.9785C72.9739 16.9785 74.6726 18.3766 74.7297 20.4121H72.9582C72.8522 19.2348 71.8848 18.5241 70.4711 18.5241C69.0574 18.5241 68.09 19.2431 68.09 20.2896C68.09 21.1236 68.7079 21.6144 70.2193 21.9901L71.5113 22.3093C73.9173 22.8817 74.9169 23.854 74.9169 25.5795C74.9169 27.7866 73.1694 29.1689 70.3899 29.1689C67.7894 29.1689 66.0336 27.8191 65.9201 25.6853L67.7166 25.6854Z" fill="#222C34"/>
<path d="M78.7038 18.3359V20.3714H80.3296V21.7695H78.7038V26.5111C78.7038 27.2478 79.0293 27.591 79.744 27.591C79.937 27.5876 80.1297 27.574 80.3213 27.5502V28.9399C80 29.0003 79.6734 29.0277 79.3465 29.0216C77.6156 29.0216 76.9406 28.3675 76.9406 26.6994V21.7695H75.6975V20.3714H76.9405V18.3359H78.7038Z" fill="#222C34"/>
<path d="M81.2717 24.6724C81.2717 21.9662 82.856 20.2656 85.3265 20.2656C87.8053 20.2656 89.3822 21.9661 89.3822 24.6724C89.3822 27.386 87.8136 29.0791 85.3265 29.0791C82.8403 29.0791 81.2717 27.386 81.2717 24.6724ZM87.5941 24.6724C87.5941 22.816 86.7485 21.7203 85.3265 21.7203C83.9045 21.7203 83.0598 22.8243 83.0598 24.6724C83.0598 26.5362 83.9045 27.6235 85.3265 27.6235C86.7485 27.6235 87.5941 26.5362 87.5941 24.6724H87.5941Z" fill="#222C34"/>
<path d="M90.8303 20.3708H92.5041V21.8347H92.5447C92.6579 21.3775 92.9242 20.9735 93.2987 20.6905C93.6732 20.4075 94.1331 20.2628 94.6011 20.2808C94.8034 20.2801 95.005 20.3022 95.2024 20.3467V21.998C94.9471 21.9195 94.6807 21.8835 94.4139 21.8913C94.1589 21.8809 93.9048 21.9262 93.6688 22.0239C93.4329 22.1216 93.2208 22.2696 93.0471 22.4576C92.8733 22.6456 92.7421 22.8692 92.6624 23.113C92.5827 23.3569 92.5563 23.6152 92.5852 23.8702V28.9718H90.8303L90.8303 20.3708Z" fill="#222C34"/>
<path d="M103.293 26.4462C103.057 28.0076 101.545 29.0791 99.6113 29.0791C97.1242 29.0791 95.5805 27.4027 95.5805 24.7132C95.5805 22.0153 97.1325 20.2656 99.5376 20.2656C101.903 20.2656 103.39 21.9003 103.39 24.5082V25.113H97.352V25.2197C97.3241 25.5363 97.3635 25.8551 97.4676 26.1552C97.5716 26.4552 97.7379 26.7296 97.9555 26.96C98.173 27.1904 98.4367 27.3717 98.7292 27.4916C99.0217 27.6116 99.3363 27.6676 99.6519 27.6559C100.067 27.695 100.483 27.5984 100.839 27.3804C101.194 27.1625 101.471 26.8348 101.626 26.4462L103.293 26.4462ZM97.3603 23.8791H101.635C101.65 23.5945 101.607 23.3097 101.509 23.0426C101.41 22.7754 101.257 22.5317 101.06 22.3267C100.863 22.1217 100.626 21.9599 100.364 21.8514C100.102 21.7429 99.8208 21.6901 99.5376 21.6962C99.2518 21.6945 98.9685 21.7497 98.7041 21.8587C98.4396 21.9677 98.1992 22.1283 97.9968 22.3313C97.7944 22.5342 97.6339 22.7755 97.5247 23.0412C97.4154 23.3069 97.3596 23.5917 97.3603 23.8792V23.8791Z" fill="#222C34"/>
<path d="M35.7188 8.29452C36.0868 8.26796 36.4559 8.32387 36.7998 8.45824C37.1436 8.5926 37.4535 8.80205 37.7071 9.0715C37.9608 9.34094 38.1518 9.66365 38.2664 10.0164C38.3811 10.3691 38.4165 10.743 38.3701 11.1111C38.3701 12.9221 37.3972 13.963 35.7188 13.963H33.6836V8.29452H35.7188ZM34.5587 13.1614H35.6211C35.884 13.1772 36.1471 13.1338 36.3912 13.0344C36.6354 12.935 36.8544 12.7821 37.0324 12.5869C37.2104 12.3916 37.3429 12.1588 37.4202 11.9055C37.4975 11.6522 37.5177 11.3848 37.4793 11.1227C37.5149 10.8616 37.4926 10.5958 37.4141 10.3444C37.3357 10.0929 37.2029 9.86208 37.0253 9.66835C36.8477 9.47461 36.6297 9.32279 36.3869 9.22377C36.1442 9.12474 35.8826 9.08096 35.6211 9.09557H34.5587V13.1614Z" fill="#222C34"/>
<path d="M39.3591 11.8231C39.3324 11.542 39.3643 11.2583 39.4529 10.9903C39.5416 10.7224 39.6849 10.476 39.8737 10.267C40.0625 10.058 40.2926 9.89106 40.5493 9.7768C40.806 9.66254 41.0837 9.60352 41.3644 9.60352C41.6451 9.60352 41.9227 9.66254 42.1794 9.7768C42.4361 9.89106 42.6663 10.058 42.8551 10.267C43.0439 10.476 43.1872 10.7224 43.2758 10.9903C43.3644 11.2583 43.3964 11.542 43.3696 11.8231C43.3969 12.1045 43.3653 12.3885 43.2769 12.6569C43.1885 12.9253 43.0453 13.1721 42.8565 13.3815C42.6676 13.5909 42.4373 13.7583 42.1803 13.8728C41.9234 13.9873 41.6454 14.0464 41.3644 14.0464C41.0833 14.0464 40.8054 13.9873 40.5484 13.8728C40.2914 13.7583 40.0611 13.5909 39.8723 13.3815C39.6834 13.1721 39.5402 12.9253 39.4518 12.6569C39.3634 12.3885 39.3319 12.1045 39.3591 11.8231ZM42.5065 11.8231C42.5065 10.8958 42.0924 10.3535 41.3658 10.3535C40.6363 10.3535 40.226 10.8958 40.226 11.8231C40.226 12.7578 40.6363 13.2959 41.3658 13.2959C42.0924 13.2959 42.5065 12.7541 42.5065 11.8231H42.5065Z" fill="#222C34"/>
<path d="M48.6998 13.9633H47.8293L46.9505 10.8127H46.8841L46.0089 13.9633H45.1467L43.9746 9.68555H44.8258L45.5875 12.9497H45.6502L46.5244 9.68555H47.3295L48.2037 12.9497H48.2701L49.0281 9.68555H49.8673L48.6998 13.9633Z" fill="#222C34"/>
<path d="M50.8536 9.68542H51.6614V10.365H51.7241C51.8305 10.1209 52.01 9.9163 52.2374 9.77969C52.4649 9.64307 52.729 9.58125 52.9931 9.60284C53.2 9.58719 53.4077 9.61858 53.6009 9.69467C53.7941 9.77076 53.9678 9.88961 54.1092 10.0424C54.2505 10.1952 54.3559 10.3781 54.4175 10.5774C54.479 10.7767 54.4952 10.9874 54.4649 11.1939V13.9632H53.6257V11.4059C53.6257 10.7185 53.3287 10.3766 52.7081 10.3766C52.5676 10.37 52.4274 10.3941 52.297 10.4471C52.1667 10.5001 52.0492 10.5809 51.9528 10.6839C51.8564 10.7868 51.7832 10.9096 51.7383 11.0436C51.6934 11.1777 51.6779 11.32 51.6928 11.4606V13.9632H50.8536L50.8536 9.68542Z" fill="#222C34"/>
<path d="M55.8008 8.01562H56.64V13.9633H55.8008V8.01562Z" fill="#222C34"/>
<path d="M57.8063 11.8222C57.7796 11.541 57.8116 11.2574 57.9002 10.9894C57.9889 10.7214 58.1322 10.475 58.321 10.2661C58.5099 10.0571 58.74 9.89009 58.9968 9.77583C59.2535 9.66156 59.5311 9.60254 59.8118 9.60254C60.0926 9.60254 60.3702 9.66156 60.6269 9.77583C60.8837 9.89009 61.1138 10.0571 61.3027 10.2661C61.4915 10.475 61.6348 10.7214 61.7234 10.9894C61.8121 11.2574 61.8441 11.541 61.8173 11.8222C61.8446 12.1036 61.8129 12.3876 61.7245 12.656C61.6361 12.9244 61.4929 13.1713 61.304 13.3806C61.1151 13.59 60.8848 13.7573 60.6278 13.8719C60.3708 13.9864 60.0929 14.0455 59.8118 14.0455C59.5308 14.0455 59.2528 13.9864 58.9959 13.8719C58.7389 13.7573 58.5086 13.59 58.3197 13.3806C58.1308 13.1713 57.9876 12.9244 57.8992 12.656C57.8107 12.3876 57.7791 12.1036 57.8063 11.8222ZM60.9537 11.8222C60.9537 10.8949 60.5397 10.3527 59.813 10.3527C59.0836 10.3527 58.6732 10.8949 58.6732 11.8222C58.6732 12.7569 59.0836 13.295 59.813 13.295C60.5397 13.295 60.9537 12.7532 60.9537 11.8222H60.9537Z" fill="#222C34"/>
<path d="M62.7031 12.7531C62.7031 11.9831 63.273 11.5392 64.2847 11.4761L65.4365 11.4093V11.0401C65.4365 10.5883 65.1395 10.3331 64.5659 10.3331C64.0975 10.3331 63.7729 10.5062 63.6797 10.8086H62.8673C62.953 10.0738 63.6401 9.60254 64.6047 9.60254C65.6707 9.60254 66.2719 10.1364 66.2719 11.0401V13.9629H65.4641V13.3617H65.3977C65.263 13.5774 65.0737 13.7532 64.8493 13.8712C64.6249 13.9892 64.3734 14.0451 64.1205 14.0334C63.942 14.052 63.7616 14.0329 63.5909 13.9771C63.4202 13.9214 63.263 13.8302 63.1295 13.7096C62.9959 13.589 62.889 13.4416 62.8156 13.2768C62.7421 13.1121 62.7038 12.9337 62.7031 12.7531ZM65.4365 12.3876V12.03L64.3981 12.0967C63.8125 12.1362 63.5469 12.3366 63.5469 12.7137C63.5469 13.0987 63.8789 13.3227 64.3354 13.3227C64.4692 13.3364 64.6043 13.3228 64.7327 13.2828C64.8611 13.2428 64.9803 13.1772 65.083 13.09C65.1857 13.0027 65.27 12.8956 65.3307 12.7749C65.3914 12.6543 65.4274 12.5225 65.4365 12.3876Z" fill="#222C34"/>
<path d="M67.373 11.8226C67.373 10.4709 68.0638 9.61459 69.1381 9.61459C69.4038 9.60227 69.6676 9.6663 69.8985 9.7992C70.1294 9.9321 70.3179 10.1284 70.4421 10.3651H70.5048V8.01562H71.3439V13.9633H70.5398V13.2875H70.4734C70.3397 13.5226 70.1446 13.7164 69.9092 13.848C69.6738 13.9795 69.4072 14.0438 69.1381 14.0338C68.0564 14.0339 67.373 13.1776 67.373 11.8226ZM68.2399 11.8226C68.2399 12.7299 68.6651 13.2759 69.3761 13.2759C70.0833 13.2759 70.5205 12.722 70.5205 11.8263C70.5205 10.9348 70.0788 10.373 69.3761 10.373C68.6696 10.373 68.2399 10.9227 68.2399 11.8226H68.2399Z" fill="#222C34"/>
<path d="M74.8181 11.8231C74.7913 11.542 74.8233 11.2583 74.9119 10.9903C75.0005 10.7224 75.1438 10.476 75.3327 10.267C75.5215 10.058 75.7516 9.89106 76.0083 9.7768C76.265 9.66254 76.5426 9.60352 76.8234 9.60352C77.1041 9.60352 77.3817 9.66254 77.6384 9.7768C77.8951 9.89106 78.1252 10.058 78.3141 10.267C78.5029 10.476 78.6462 10.7224 78.7348 10.9903C78.8234 11.2583 78.8554 11.542 78.8286 11.8231C78.8559 12.1045 78.8243 12.3885 78.7359 12.6569C78.6475 12.9253 78.5043 13.1721 78.3154 13.3815C78.1266 13.5909 77.8963 13.7583 77.6393 13.8728C77.3823 13.9873 77.1044 14.0464 76.8234 14.0464C76.5423 14.0464 76.2644 13.9873 76.0074 13.8728C75.7504 13.7583 75.5201 13.5909 75.3313 13.3815C75.1424 13.1721 74.9992 12.9253 74.9108 12.6569C74.8224 12.3885 74.7908 12.1045 74.8181 11.8231ZM77.9655 11.8231C77.9655 10.8958 77.5514 10.3535 76.8247 10.3535C76.0953 10.3535 75.685 10.8958 75.685 11.8231C75.685 12.7578 76.0953 13.2959 76.8247 13.2959C77.5514 13.2959 77.9655 12.7541 77.9655 11.8231Z" fill="#222C34"/>
<path d="M79.9531 9.68542H80.761V10.365H80.8237C80.9301 10.1209 81.1095 9.9163 81.3369 9.77969C81.5644 9.64307 81.8285 9.58125 82.0926 9.60284C82.2995 9.58719 82.5072 9.61858 82.7004 9.69467C82.8936 9.77076 83.0674 9.88961 83.2087 10.0424C83.35 10.1952 83.4554 10.3781 83.517 10.5774C83.5786 10.7767 83.5947 10.9874 83.5644 11.1939V13.9632H82.7252V11.4059C82.7252 10.7185 82.4283 10.3766 81.8076 10.3766C81.6672 10.37 81.5269 10.3941 81.3966 10.4471C81.2662 10.5001 81.1488 10.5809 81.0523 10.6839C80.9559 10.7868 80.8827 10.9096 80.8378 11.0436C80.793 11.1777 80.7774 11.32 80.7923 11.4606V13.9632H79.9531V9.68542Z" fill="#222C34"/>
<path d="M88.3062 8.62012V9.70464H89.2274V10.4157H88.3062V12.6154C88.3062 13.0635 88.4897 13.2597 88.9074 13.2597C89.0144 13.2594 89.1212 13.2529 89.2274 13.2402V13.9435C89.0767 13.9706 88.924 13.985 88.7709 13.9866C87.8377 13.9866 87.466 13.6563 87.466 12.8316V10.4157H86.791V9.7046H87.466V8.62012H88.3062Z" fill="#222C34"/>
<path d="M90.373 8.01562H91.2049V10.373H91.2712C91.3828 10.1266 91.5671 9.92089 91.7992 9.78376C92.0312 9.64663 92.2996 9.5848 92.5678 9.60669C92.7736 9.59543 92.9794 9.63 93.1704 9.70794C93.3614 9.78588 93.533 9.90527 93.6728 10.0576C93.8127 10.2099 93.9174 10.3914 93.9795 10.5891C94.0417 10.7869 94.0596 10.9959 94.0322 11.2015V13.9633H93.1922V11.4097C93.1922 10.7265 92.8758 10.3804 92.2829 10.3804C92.1387 10.3685 91.9936 10.3885 91.8578 10.4389C91.7221 10.4893 91.5989 10.5689 91.4969 10.6722C91.3949 10.7755 91.3166 10.9 91.2674 11.0369C91.2183 11.1738 91.1994 11.3199 91.2123 11.4649V13.9633H90.3731L90.373 8.01562Z" fill="#222C34"/>
<path d="M98.9263 12.8079C98.8123 13.1989 98.5652 13.5371 98.2284 13.7633C97.8916 13.9896 97.4864 14.0895 97.0838 14.0455C96.8036 14.053 96.5252 13.999 96.2679 13.8873C96.0106 13.7757 95.7805 13.609 95.5936 13.3989C95.4067 13.1889 95.2675 12.9404 95.1857 12.6708C95.1038 12.4011 95.0812 12.1168 95.1195 11.8375C95.0822 11.5574 95.1052 11.2724 95.1869 11.002C95.2685 10.7316 95.407 10.4819 95.5929 10.27C95.7788 10.0581 96.0078 9.88884 96.2644 9.77369C96.521 9.65854 96.7991 9.6002 97.0801 9.60261C98.2632 9.60261 98.977 10.4158 98.977 11.7591V12.0537H95.9744V12.101C95.9613 12.258 95.9809 12.416 96.032 12.5649C96.0831 12.7138 96.1646 12.8504 96.2712 12.9657C96.3778 13.0811 96.5072 13.1728 96.6511 13.2349C96.795 13.2971 96.9502 13.3283 97.1068 13.3265C97.3076 13.3508 97.5109 13.3144 97.6911 13.222C97.8712 13.1297 98.02 12.9855 98.1185 12.8079L98.9263 12.8079ZM95.9744 11.4293H98.1221C98.1327 11.2857 98.1133 11.1415 98.0652 11.006C98.0171 10.8704 97.9413 10.7464 97.8427 10.6421C97.7441 10.5377 97.625 10.4552 97.4928 10.4C97.3607 10.3447 97.2185 10.3178 97.0755 10.3211C96.9303 10.3193 96.7863 10.3467 96.6518 10.4018C96.5174 10.4568 96.3953 10.5384 96.2927 10.6417C96.19 10.7449 96.109 10.8678 96.0544 11.0031C95.9997 11.1384 95.9725 11.2833 95.9744 11.4293H95.9744Z" fill="#222C34"/>
</g>
<defs>
<clipPath id="clip0_1635_1351">
<rect width="113" height="38" fill="white"/>
</clipPath>
</defs>
</svg>