<svg width="129" height="38" viewBox="0 0 129 38" fill="none" xmlns="http://www.w3.org/2000/svg">
<g clip-path="url(#clip0_1635_1328)">
<path d="M124.222 38H4.77778C2.15 38 0 35.8625 0 33.25V4.75C0 2.1375 2.15 0 4.77778 0H124.222C126.85 0 129 2.1375 129 4.75V33.25C129 35.8625 126.85 38 124.222 38Z" fill="#20262E"/>
<path d="M45.3119 9.72787C45.3119 10.5259 45.0731 11.1624 44.5953 11.6279C44.0602 12.1884 43.3531 12.4734 42.4931 12.4734C41.6617 12.4734 40.9642 12.1884 40.3813 11.6184C39.7984 11.0484 39.5117 10.3359 39.5117 9.49987C39.5117 8.65437 39.7984 7.95137 40.3813 7.38137C40.9642 6.81137 41.6617 6.52637 42.4931 6.52637C42.9039 6.52637 43.2957 6.60237 43.6684 6.76387C44.0411 6.92537 44.3373 7.13437 44.5666 7.40037L44.0602 7.90387C43.6779 7.45737 43.1619 7.22937 42.4931 7.22937C41.8911 7.22937 41.3655 7.43837 40.9259 7.86587C40.4864 8.28387 40.2666 8.83487 40.2666 9.50937C40.2666 10.1839 40.4864 10.7349 40.9259 11.1529C41.3655 11.5709 41.8911 11.7894 42.4931 11.7894C43.1333 11.7894 43.6684 11.5804 44.0984 11.1529C44.3755 10.8774 44.5379 10.4879 44.5762 9.99387H42.4931V9.30037H45.2737C45.2928 9.45237 45.3119 9.59487 45.3119 9.72787Z" fill="white" stroke="#252A34" stroke-width="0.2" stroke-miterlimit="10"/>
<path d="M49.7175 7.35241H47.1088V9.15741H49.4595V9.84141H47.1088V11.6464H49.7175V12.3494H46.373V6.64941H49.7175V7.35241Z" fill="white" stroke="#252A34" stroke-width="0.2" stroke-miterlimit="10"/>
<path d="M52.8235 12.3494H52.0878V7.35241H50.4824V6.64941H54.4193V7.35241H52.814V12.3494H52.8235Z" fill="white" stroke="#252A34" stroke-width="0.2" stroke-miterlimit="10"/>
<path d="M57.2755 12.3494V6.64941H58.0112V12.3494H57.2755Z" fill="white" stroke="#252A34" stroke-width="0.2" stroke-miterlimit="10"/>
<path d="M61.2786 12.3494H60.5428V7.35241H58.9375V6.64941H62.8744V7.35241H61.2691V12.3494H61.2786Z" fill="white" stroke="#252A34" stroke-width="0.2" stroke-miterlimit="10"/>
<path d="M70.3383 11.6089C69.7745 12.1884 69.077 12.4734 68.2361 12.4734C67.3952 12.4734 66.6976 12.1884 66.1339 11.6089C65.5701 11.0294 65.293 10.3264 65.293 9.49987C65.293 8.67337 65.5701 7.96087 66.1339 7.39087C66.6976 6.81137 67.3952 6.52637 68.2361 6.52637C69.0674 6.52637 69.765 6.81137 70.3383 7.39087C70.9021 7.97037 71.1887 8.67337 71.1887 9.49987C71.1792 10.3359 70.9021 11.0389 70.3383 11.6089ZM66.6785 11.1339C67.099 11.5614 67.6245 11.7704 68.2361 11.7704C68.8476 11.7704 69.3732 11.5614 69.7936 11.1339C70.2141 10.7064 70.4339 10.1649 70.4339 9.49987C70.4339 8.83487 70.2236 8.29337 69.7936 7.86587C69.3732 7.43837 68.8476 7.21987 68.2361 7.21987C67.6245 7.21987 67.099 7.42887 66.6785 7.85637C66.2581 8.29337 66.0383 8.83487 66.0383 9.49987C66.0383 10.1649 66.2581 10.7064 66.6785 11.1339Z" fill="white" stroke="#252A34" stroke-width="0.2" stroke-miterlimit="10"/>
<path d="M72.2207 12.3494V6.64941H73.1189L75.9091 11.0859H75.9378L75.9091 9.98391V6.64941H76.6449V12.3494H75.8805L72.966 7.70391H72.9374L72.966 8.80591V12.3494H72.2207Z" fill="white" stroke="#252A34" stroke-width="0.2" stroke-miterlimit="10"/>
<path d="M65.0733 20.6154C62.8278 20.6154 60.9931 22.3159 60.9931 24.6529C60.9931 26.9804 62.8278 28.6904 65.0733 28.6904C67.3189 28.6904 69.1536 26.9804 69.1536 24.6529C69.1536 22.3159 67.3189 20.6154 65.0733 20.6154ZM65.0733 27.1039C63.8407 27.1039 62.78 26.0969 62.78 24.6529C62.78 23.1994 63.8407 22.2019 65.0733 22.2019C66.306 22.2019 67.3667 23.1994 67.3667 24.6529C67.3667 26.0969 66.2965 27.1039 65.0733 27.1039ZM56.1676 20.6154C53.922 20.6154 52.0873 22.3159 52.0873 24.6529C52.0873 26.9804 53.922 28.6904 56.1676 28.6904C58.4131 28.6904 60.2478 26.9804 60.2478 24.6529C60.2478 22.3159 58.4131 20.6154 56.1676 20.6154ZM56.1676 27.1039C54.9349 27.1039 53.8742 26.0969 53.8742 24.6529C53.8742 23.1994 54.9349 22.2019 56.1676 22.2019C57.4002 22.2019 58.4609 23.1994 58.4609 24.6529C58.4609 26.0969 57.4002 27.1039 56.1676 27.1039ZM45.58 21.8599V23.5699H49.708C49.5838 24.5294 49.2589 25.2419 48.7716 25.7264C48.1696 26.3249 47.2331 26.9804 45.5896 26.9804C43.0478 26.9804 41.0602 24.9474 41.0602 22.4204C41.0602 19.8934 43.0478 17.8604 45.5896 17.8604C46.956 17.8604 47.9594 18.3924 48.6951 19.0859L49.9087 17.8794C48.8767 16.9009 47.5102 16.1504 45.58 16.1504C42.1018 16.1504 39.1778 18.9624 39.1778 22.4299C39.1778 25.8879 42.1018 28.7094 45.58 28.7094C47.4625 28.7094 48.8767 28.1014 49.9851 26.9519C51.1222 25.8214 51.4758 24.2254 51.4758 22.9429C51.4758 22.5439 51.4471 22.1734 51.3802 21.8694H45.58V21.8599ZM88.8762 23.1899C88.5418 22.2874 87.5098 20.6154 85.398 20.6154C83.3054 20.6154 81.5662 22.2494 81.5662 24.6529C81.5662 26.9139 83.2862 28.6904 85.5987 28.6904C87.462 28.6904 88.5418 27.5599 88.9814 26.9044L87.5958 25.9829C87.1371 26.6574 86.5065 27.1039 85.5987 27.1039C84.6909 27.1039 84.0411 26.6859 83.6302 25.8784L89.0673 23.6459L88.8762 23.1899ZM83.334 24.5389C83.2862 22.9809 84.5476 22.1829 85.4554 22.1829C86.1625 22.1829 86.7645 22.5344 86.9651 23.0379L83.334 24.5389ZM78.9193 28.4529H80.7062V16.5779H78.9193V28.4529ZM75.9953 21.5179H75.9285C75.5271 21.0429 74.7627 20.6154 73.788 20.6154C71.7527 20.6154 69.8894 22.3919 69.8894 24.6719C69.8894 26.9329 71.7527 28.6999 73.788 28.6999C74.7531 28.6999 75.5271 28.2724 75.9285 27.7784H75.9858V28.3579C75.9858 29.9064 75.1545 30.7329 73.8167 30.7329C72.7274 30.7329 72.0489 29.9539 71.7718 29.2984L70.2142 29.9444C70.6633 31.0179 71.8482 32.3289 73.8167 32.3289C75.9094 32.3289 77.6771 31.1034 77.6771 28.1204V20.8624H75.9858V21.5179H75.9953ZM73.9409 27.1039C72.7082 27.1039 71.6762 26.0779 71.6762 24.6719C71.6762 23.2469 72.7082 22.2114 73.9409 22.2114C75.1545 22.2114 76.11 23.2564 76.11 24.6719C76.1196 26.0779 75.164 27.1039 73.9409 27.1039ZM97.2469 16.5779H92.9756V28.4529H94.7625V23.9499H97.2565C99.2345 23.9499 101.174 22.5249 101.174 20.2639C101.174 18.0029 99.2153 16.5779 97.2469 16.5779ZM97.2851 22.2969H94.7529V18.2214H97.2851C98.6229 18.2214 99.3778 19.3234 99.3778 20.2544C99.3778 21.1854 98.6229 22.2969 97.2851 22.2969ZM108.312 20.5964C107.022 20.5964 105.684 21.1664 105.13 22.4109L106.716 23.0664C107.051 22.4109 107.682 22.1924 108.341 22.1924C109.268 22.1924 110.204 22.7434 110.214 23.7219V23.8454C109.889 23.6649 109.201 23.3894 108.35 23.3894C106.64 23.3894 104.91 24.3204 104.91 26.0589C104.91 27.6454 106.306 28.6714 107.873 28.6714C109.067 28.6714 109.736 28.1394 110.147 27.5124H110.204V28.4339H111.924V23.8834C111.934 21.7744 110.348 20.5964 108.312 20.5964ZM108.092 27.1039C107.51 27.1039 106.697 26.8094 106.697 26.0969C106.697 25.1849 107.71 24.8334 108.589 24.8334C109.373 24.8334 109.746 25.0044 110.214 25.2324C110.08 26.3249 109.124 27.1039 108.092 27.1039ZM118.202 20.8529L116.157 26.0019H116.1L113.979 20.8529H112.058L115.24 28.0539L113.424 32.0534H115.288L120.19 20.8529H118.202ZM102.149 28.4529H103.936V16.5779H102.149V28.4529Z" fill="white"/>
<path d="M9.97648 7.16318C9.69937 7.45768 9.53693 7.91368 9.53693 8.49318V29.5072C9.53693 30.0962 9.69937 30.5522 9.97648 30.8372L10.0434 30.9037L21.8827 19.1427V19.0002V18.8577L10.0434 7.09668L9.97648 7.16318Z" fill="url(#paint0_linear_1635_1328)"/>
<path d="M25.8291 23.0666L21.8827 19.1431V19.0006V18.8581L25.8291 14.9346L25.9151 14.9821L30.5878 17.6231C31.9256 18.3736 31.9256 19.6086 30.5878 20.3686L25.9151 23.0096L25.8291 23.0666Z" fill="url(#paint1_linear_1635_1328)"/>
<path d="M25.9151 23.0185L21.8827 19L9.97644 30.837C10.416 31.3025 11.1422 31.3595 11.964 30.894L25.9151 23.0185Z" fill="url(#paint2_linear_1635_1328)"/>
<path d="M25.9151 14.9911L11.9545 7.10611C11.1327 6.64061 10.4065 6.69761 9.9669 7.16311L21.8827 19.0001L25.9151 14.9911Z" fill="url(#paint3_linear_1635_1328)"/>
<path opacity="0.2" d="M25.8291 22.9238L11.9545 30.7613C11.1805 31.1983 10.4829 31.1698 10.0434 30.7708L9.97648 30.8373L10.0434 30.9038C10.4925 31.3028 11.1805 31.3313 11.9545 30.8943L25.9151 23.0093L25.8291 22.9238Z" fill="#20262E"/>
<path opacity="0.12" d="M9.97648 30.704C9.69937 30.4095 9.53693 29.9535 9.53693 29.374V29.5165C9.53693 30.1055 9.69937 30.5615 9.97648 30.8465L10.0434 30.78L9.97648 30.704Z" fill="#20262E"/>
<path opacity="0.12" d="M30.5885 20.235L25.8203 22.9235L25.9063 23.009L30.579 20.368C31.2479 19.988 31.5823 19.494 31.5823 19C31.5345 19.4465 31.2001 19.893 30.5885 20.235Z" fill="#20262E"/>
<path opacity="0.25" d="M11.9545 7.23931L30.5878 17.7653C31.1898 18.1073 31.5338 18.5443 31.5911 19.0003C31.5911 18.5063 31.2567 18.0028 30.5878 17.6323L11.9545 7.10631C10.6167 6.35581 9.52734 6.98281 9.52734 8.50281V8.64531C9.52734 7.11581 10.6262 6.48881 11.9545 7.23931Z" fill="white"/>
</g>
<defs>
<linearGradient id="paint0_linear_1635_1328" x1="20.8312" y1="8.27449" x2="4.8882" y2="24.3107" gradientUnits="userSpaceOnUse">
<stop stop-color="#00A0FF"/>
<stop offset="0.00657445" stop-color="#00A1FF"/>
<stop offset="0.2601" stop-color="#00BEFF"/>
<stop offset="0.5122" stop-color="#00D2FF"/>
<stop offset="0.7604" stop-color="#00DFFF"/>
<stop offset="1" stop-color="#00E3FF"/>
</linearGradient>
<linearGradient id="paint1_linear_1635_1328" x1="32.331" y1="19.002" x2="9.20954" y2="19.002" gradientUnits="userSpaceOnUse">
<stop stop-color="#FFE000"/>
<stop offset="0.4087" stop-color="#FFBD00"/>
<stop offset="0.7754" stop-color="#FFA500"/>
<stop offset="1" stop-color="#FF9C00"/>
</linearGradient>
<linearGradient id="paint2_linear_1635_1328" x1="23.7239" y1="21.1814" x2="2.1039" y2="42.9278" gradientUnits="userSpaceOnUse">
<stop stop-color="#FF3A44"/>
<stop offset="1" stop-color="#C31162"/>
</linearGradient>
<linearGradient id="paint3_linear_1635_1328" x1="6.97334" y1="0.167596" x2="16.6276" y2="9.87826" gradientUnits="userSpaceOnUse">
<stop stop-color="#32A071"/>
<stop offset="0.0685" stop-color="#2DA771"/>
<stop offset="0.4762" stop-color="#15CF74"/>
<stop offset="0.8009" stop-color="#06E775"/>
<stop offset="1" stop-color="#00F076"/>
</linearGradient>
<clipPath id="clip0_1635_1328">
<rect width="129" height="38" fill="white"/>
</clipPath>
</defs>
</svg>